<svg width="920" height="176" viewBox="0 0 920 176" fill="none" xmlns="http://www.w3.org/2000/svg">
<path d="M489.985 39.0625C490.613 38.5213 490.682 37.5741 490.141 36.9469L481.322 26.7258C480.781 26.0986 479.833 26.0289 479.206 26.5701C478.579 27.1113 478.509 28.0584 479.05 28.6857L486.89 37.771L477.804 45.6104C477.177 46.1516 477.108 47.0988 477.649 47.726C478.19 48.3532 479.137 48.423 479.764 47.8818L489.985 39.0625ZM0.889869 3.49595L488.895 39.4227L489.116 36.4308L1.11013 0.504048L0.889869 3.49595Z" fill="black"/>
<path d="M479.103 76.0168C479.664 75.4078 479.626 74.4588 479.017 73.8972L469.092 64.7458C468.483 64.1842 467.534 64.2227 466.972 64.8317C466.411 65.4408 466.449 66.3897 467.058 66.9513L475.88 75.0859L467.746 83.908C467.184 84.517 467.223 85.466 467.832 86.0275C468.441 86.5891 469.39 86.5506 469.951 85.9416L479.103 76.0168ZM256.061 85.4988L478.061 76.4988L477.939 73.5012L255.939 82.5012L256.061 85.4988Z" fill="black"/>
<path d="M537.224 110.867C537.703 110.191 537.543 109.255 536.867 108.776L525.852 100.971C525.176 100.492 524.24 100.652 523.761 101.327C523.282 102.003 523.442 102.94 524.118 103.419L533.909 110.357L526.971 120.148C526.492 120.824 526.652 121.76 527.327 122.239C528.003 122.718 528.94 122.558 529.419 121.882L537.224 110.867ZM407.252 133.479L536.252 111.479L535.748 108.521L406.748 130.521L407.252 133.479Z" fill="black"/>
<path d="M724.836 57.0543C724.313 57.6974 724.411 58.6421 725.054 59.1643L735.533 67.6755C736.176 68.1978 737.121 68.0999 737.643 67.4568C738.166 66.8138 738.068 65.8691 737.425 65.3468L728.11 57.7813L735.675 48.4666C736.198 47.8236 736.1 46.8789 735.457 46.3566C734.814 45.8343 733.869 45.9322 733.347 46.5753L724.836 57.0543ZM918.845 36.508L725.845 56.508L726.155 59.492L919.155 39.492L918.845 36.508Z" fill="black"/>
<path d="M641.261 143.523C640.445 143.379 639.667 143.924 639.523 144.739L637.177 158.034C637.033 158.85 637.577 159.628 638.393 159.772C639.209 159.916 639.987 159.371 640.131 158.555L642.216 146.738L654.034 148.823C654.85 148.967 655.628 148.423 655.772 147.607C655.916 146.791 655.371 146.013 654.555 145.869L641.261 143.523ZM663.229 174.14L642.229 144.14L639.771 145.86L660.771 175.86L663.229 174.14Z" fill="black"/>
<path d="M685.497 100.587C684.717 100.865 684.309 101.723 684.587 102.503L689.114 115.221C689.392 116.002 690.249 116.409 691.03 116.132C691.81 115.854 692.218 114.996 691.94 114.215L687.916 102.91L699.221 98.8863C700.002 98.6085 700.409 97.7506 700.132 96.9701C699.854 96.1897 698.996 95.7822 698.215 96.06L685.497 100.587ZM726.644 119.645L686.644 100.645L685.356 103.355L725.356 122.355L726.644 119.645Z" fill="black"/>
</svg>
